<svg xmlns="http://www.w3.org/2000/svg" xmlns:xlink="http://www.w3.org/1999/xlink" viewBox="0,0,255.99544,255.99544" width="64px" height="64px" fill-rule="nonzero"><g fill="#ffffff" fill-rule="nonzero" stroke="none" stroke-width="1" stroke-linecap="butt" stroke-linejoin="miter" stroke-miterlimit="10" stroke-dasharray="" stroke-dashoffset="0" font-family="none" font-weight="none" font-size="none" text-anchor="none" style="mix-blend-mode: normal"><g transform="scale(3.55556,3.55556)"><path d="M47,12c6.186,0 16,4.887 16,18c0,8.24 -4.44,13.511 -10.239,19.54c-4.844,5.046 -11.983,9.887 -12.285,10.09c-1.352,0.913 -2.914,1.37 -4.476,1.37c-1.562,0 -3.124,-0.457 -4.477,-1.37c-0.302,-0.204 -7.441,-5.044 -12.279,-10.085c-5.804,-6.034 -10.244,-11.305 -10.244,-19.545c0,-13.113 9.814,-18 16,-18c3.901,0 7.647,1.286 11,3.75c3.353,-2.464 7.099,-3.75 11,-3.75z"></path></g></g></svg>