<svg width="96" height="96" viewBox="0 0 96 96" fill="none" xmlns="http://www.w3.org/2000/svg">
<path fill-rule="evenodd" clip-rule="evenodd" d="M48 96C74.5097 96 96 74.5097 96 48C96 21.4903 74.5097 0 48 0C21.4903 0 0 21.4903 0 48C0 74.5097 21.4903 96 48 96ZM70 48.2411C70 46.6146 69.175 45.1305 67.793 44.2713L41.142 27.7039C39.7016 26.8088 37.8857 26.7644 36.4033 27.5878C34.9216 28.412 34 29.9778 34 31.6738V64.8085C34 66.5045 34.9216 68.0703 36.4033 68.8937C37.1098 69.2871 37.892 69.4819 38.6741 69.4819C39.5318 69.4819 40.388 69.2466 41.1413 68.7776L67.7938 52.211C69.175 51.3518 70 49.8677 70 48.2411Z" fill="white"/>
</svg>
